PathFileType	4	(X/Y/Z)	17_2_32_p1_0-423.trc
DataRate	CameraRate	NumFrames	NumMarkers	Units	OrigDataRate	OrigDataStartFrame	OrigNumFrames
57.0	57.0	5	27	m	57.0	53	424
Frame#	Time	RHip			RKnee			RAnkle			RBigToe			RSmallToe			RHeel			LHip			LKnee			LAnkle			LBigToe			LSmallToe			LHeel			Neck			Head			Nose			RShoulder			RElbow			RWrist			RThumb			RIndex			RPinky			LShoulder			LElbow			LWrist			LThumb			LIndex			LPinky			
		X1	Y1	Z1	X2	Y2	Z2	X3	Y3	Z3	X4	Y4	Z4	X5	Y5	Z5	X6	Y6	Z6	X7	Y7	Z7	X8	Y8	Z8	X9	Y9	Z9	X10	Y10	Z10	X11	Y11	Z11	X12	Y12	Z12	X13	Y13	Z13	X14	Y14	Z14	X15	Y15	Z15	X16	Y16	Z16	X17	Y17	Z17	X18	Y18	Z18	X19	Y19	Z19	X20	Y20	Z20	X21	Y21	Z21	X22	Y22	Z22	X23	Y23	Z23	X24	Y24	Z24	X25	Y25	Z25	X26	Y26	Z26	X27	Y27	Z27	
53	0.9298245614035088	0.24139460615726605	0.5232151636082139	0.8479490380180816	0.2280730963048949	0.5565911792325741	1.2464703881115347	0.2092796687009515	0.7613611621717625	1.7104259496528411	0.23626687378519873	0.5348825025043603	1.7339799079533793	0.2843202453614603	0.5839768079034475	1.7386764140255702	0.1919095424116256	0.814030107671227	1.756258008690993	0.032644435383533475	0.5129570474378373	0.8530177329572183	0.03274652232177839	0.5958571342568549	1.2716528856720406	0.03411127961613779	0.6747883564555655	1.7011887932969694	0.08978312114483984	0.48361715454976895	1.7239589335451255	0.02824803339596295	0.501242461217739	1.7210994541834088	0.047407214594181145	0.7363100311965531	1.7596461719679564	0.15026725088873255	0.39104958925048633	0.22619970159195088	0.16068141224071786	0.2900480805022709	-0.014217645115623569	0.17393186858946488	0.2414030571928888	0.13400754362018605	0.2988849460656721	0.4511661833539732	0.3043117774759089	0.3878501959956455	0.5182733467573345	0.5493651785240952	0.489392092544518	0.5037603228582597	0.8085895708594439	0.4578871700147941	0.47417247475491814	0.9184306516509654	0.48769474917564015	0.4212385753718036	0.9270236065143194	0.4703293845642094	0.5044158898535578	0.940691708673548	-0.015635212284066946	0.39946088343103753	0.31259894188367054	-0.11263016719688432	0.4925232333334461	0.5670091478374987	-0.18310063497579634	0.4528641070283222	0.8138995093231731	-0.1358430722316441	0.32433077445264286	0.9040473682159055	-0.18422864438557723	0.347034739281932	0.9268745429051295	-0.1944234124740282	0.41662296548160416	0.9446792196798142
54	0.9473684210526315	0.2435416810298035	0.536436157039652	0.8503970920725717	0.22820364357740916	0.5568153404554863	1.246425460038529	0.2093246518770043	0.7616111485112486	1.7106124875147963	0.23631210539835917	0.5338039971326718	1.7336293902574216	0.2862144379348902	0.5938937736214699	1.7433619986164615	0.19197394528323194	0.8151996158062514	1.757004005540484	0.0326590406781408	0.5130449855211862	0.8529391051285226	0.03283959185218824	0.5959006307007702	1.271675186109644	0.03229959960832616	0.6727471932017584	1.7003609016198178	0.08985657250144138	0.48413659580482665	1.723859332681455	0.03532923625617537	0.4870510535021381	1.7128293445819625	0.047354434702005975	0.7360604780700937	1.7594446412094258	0.14487520501289894	0.4029489309555869	0.2265686085643148	0.16613002831602872	0.27894074535623037	-0.01069016620732212	0.1740592824735232	0.24116551416918325	0.13701436533203523	0.2988444575877888	0.4510727114302338	0.30423304256918365	0.39225717098537133	0.5051111554991421	0.5439717101751171	0.49240674538446577	0.5164454354969092	0.8029529639946686	0.4716500054387275	0.44775082254488574	0.9103158686754116	0.4884020016421008	0.42077107550263637	0.9231699634459848	0.47704085773137345	0.5301481536319165	0.9461502853439193	-0.01558550110656928	0.3994121327632857	0.3125936038776419	-0.11287487749720115	0.49453275682771525	0.5669573073636929	-0.1831629909539724	0.45382161220761014	0.8067395301361368	-0.13265156266593997	0.3280742490323557	0.9043263001101022	-0.19825524408145043	0.3702685381840644	0.9335502879977462	-0.19818992320603002	0.400661670074828	0.9409901633458131
55	0.9649122807017544	0.24353534906967317	0.5363890257239797	0.8504495985005315	0.22768574536137426	0.5575101019601597	1.242621789939565	0.20933941870270115	0.7613965195808452	1.7104857834237173	0.2362652258407965	0.534002067610403	1.7337508696973103	0.2842684383935501	0.5813598249713052	1.7374806522470343	0.1919574168512499	0.8147228009800036	1.756696748542155	0.03226467839523923	0.512838755179907	0.8565867402807685	0.0327709853419095	0.5960351737903645	1.2717196837908524	0.03233480802688288	0.6727204350521568	1.7004745992107362	0.08974907388906915	0.48373652645975707	1.7237227763416412	0.03524905117184861	0.48712320179741236	1.7129666095769225	0.04741518997869489	0.7363419171073021	1.759497017646313	0.15027835462823558	0.39095188072985143	0.22643526643597706	0.1662152239574584	0.2790376691950317	-0.010675439421414232	0.17916170332639522	0.2309213037468804	0.13726444462990656	0.2986114168722439	0.4497283102525859	0.300760726047379	0.39233315559610804	0.5050873684042841	0.5440345755292962	0.49255481750500146	0.5164831953058562	0.8028770928407746	0.4671102819810529	0.46153639964353227	0.9136985147437998	0.4912691430450779	0.4318508690663177	0.9255958135883223	0.47685846514995694	0.5300939224909881	0.945866408250735	-0.019340994619912903	0.39547344321744654	0.3090857430843675	-0.11253418851822748	0.4927970041408212	0.5594295088242222	-0.18343178421577344	0.45464463015718076	0.8064850324265072	-0.13240076096617062	0.34056701254093064	0.9037135181204872	-0.19842398193211147	0.36867662594427025	0.9289797174079807	-0.19882728623039198	0.41520943613593925	0.9407764525663774
56	0.9824561403508771	0.2409041447501288	0.5216806205720332	0.8437449173919143	0.22884211737883067	0.5589916755781454	1.25116316313511	0.2093318540470785	0.7614691344359054	1.7105425684827447	0.23634791783736886	0.5339400125354749	1.7336290777910621	0.28644058792012145	0.5949192324780893	1.7437196871980973	0.19193259565158619	0.8147863598545894	1.7567604723208545	0.03272390175139175	0.5128556349374297	0.85293468943162	0.0328224785309187	0.5958123166216075	1.271629602150585	0.03226709986383317	0.6728163496905235	1.7007698957783388	0.09075256562468377	0.4832096596904795	1.7199326975704863	0.035213575904531225	0.4872026665595445	1.713195286454959	0.04731326710003191	0.736469240992013	1.759872091136588	0.15029003515541242	0.39096403755191206	0.2265359154872618	0.1664530517154141	0.2785002530197323	-0.010759806050484325	0.17933286328686482	0.23065157893699098	0.1377358130802121	0.29864749075633745	0.44960311277074344	0.30058746959261146	0.392392025748456	0.5049727096215737	0.5439047248255736	0.4962137838105745	0.5163382302655336	0.7988335130685061	0.47193998246928776	0.44827072552462566	0.9095009786608119	0.4944023918195253	0.4318805777542025	0.9218017915164904	0.4728210142926559	0.5183659311123467	0.9394576190440695	-0.0193429075936294	0.3954317829083573	0.3090222139909261	-0.11222962091477964	0.49232303382097165	0.5634144093419278	-0.18340575182810803	0.45445590614817194	0.8065962554810391	-0.1357402746273967	0.3251458467042361	0.8963967498606581	-0.19864718142971094	0.36885850404013804	0.9290474626607386	-0.19822748467410176	0.41488271150726036	0.937123655479869
57	1.0	0.24265848397528314	0.5353092695468372	0.8426326654942372	0.2283429833874313	0.5597980846822711	1.2472607421221633	0.20933622696838897	0.7615717436351437	1.7106559637908318	0.23628067082039828	0.5340027421724836	1.7338210358028003	0.2863000326184257	0.5947480212173512	1.743840477599884	0.19200707540133524	0.8149768234351031	1.7569911247596335	0.03277864898474753	0.5129071752200812	0.8529729852655701	0.03279785419759924	0.5959693379054073	1.2715770869310705	0.03339016961814781	0.6724365742347154	1.695443871365941	0.08958809253941842	0.48457486616468937	1.7240590631156893	0.02823819747471612	0.5012728258913989	1.7207780759860576	0.047350790628985714	0.7364219521126274	1.7595476289415903	0.1503281468857809	0.39091636111079553	0.22656957170898695	0.16644485129098666	0.279787873600945	-0.010140608313262026	0.1794741205590125	0.23162404566462763	0.14111406118906875	0.29868490215603355	0.4494805403969435	0.30044058077450964	0.3924968280897946	0.5048505213808032	0.5401944699972192	0.4969186506404699	0.5003876122121387	0.7917424634472204	0.4708290706143312	0.46036935850066985	0.9081107520688144	0.49432914587970017	0.4321872770510415	0.9213284419333201	0.4729612246572569	0.5179751248521197	0.9351887231916433	-0.019315403452076697	0.39539208174630336	0.3089601594278753	-0.11241620929553434	0.49257130045647235	0.5593917632972247	-0.18315272638288696	0.4550121176455204	0.7991482124666826	-0.13322725088995313	0.32846482208092376	0.8901023102391523	-0.19837160253173966	0.37036138128541624	0.9334063704446457	-0.1988688083464653	0.4151401899932807	0.9406926082686217
